<?xml version="1.0" standalone="no"?>
<!DOCTYPE svg PUBLIC "-//W3C//DTD SVG 20010904//EN"
 "http://www.w3.org/TR/2001/REC-SVG-20010904/DTD/svg10.dtd">
<svg version="1.0" xmlns="http://www.w3.org/2000/svg"
 width="512.000000pt" height="512.000000pt" viewBox="0 0 512.000000 512.000000"
 preserveAspectRatio="xMidYMid meet">

<g transform="translate(0.000000,512.000000) scale(0.100000,-0.100000)"
fill="#5875A1" stroke="none">
<path d="M2310 5039 c-366 -47 -728 -200 -1010 -426 -77 -62 -241 -225 -305
-303 -198 -242 -346 -556 -410 -868 -31 -152 -49 -355 -41 -462 35 -438 309
-980 863 -1705 303 -397 974 -1145 1067 -1189 47 -22 128 -21 175 4 82 41 618
629 941 1030 244 303 499 668 641 915 101 177 214 420 262 565 65 194 81 286
80 465 -1 486 -188 963 -521 1328 -330 362 -765 586 -1252 647 -98 12 -395 11
-490 -1z m420 -1070 c188 -30 378 -134 521 -287 410 -437 315 -1139 -196
-1453 -167 -103 -330 -145 -535 -136 -188 8 -324 50 -477 149 -300 195 -470
560 -424 913 41 308 238 588 511 725 191 96 378 123 600 89z"/>
</g>
</svg>
