<?xml version="1.0" standalone="no"?>
<!DOCTYPE svg PUBLIC "-//W3C//DTD SVG 20010904//EN"
 "http://www.w3.org/TR/2001/REC-SVG-20010904/DTD/svg10.dtd">
<svg version="1.0" xmlns="http://www.w3.org/2000/svg"
 width="900.000000pt" height="567.000000pt" viewBox="0 0 900.000000 567.000000"
 preserveAspectRatio="xMidYMid meet">

<g transform="translate(0.000000,567.000000) scale(0.100000,-0.100000)"
fill="#002D73" stroke="none">
<path d="M4260 5243 c-699 -71 -1207 -422 -1399 -966 -59 -167 -75 -270 -75
-482 0 -136 5 -218 17 -290 93 -531 395 -1241 885 -2079 238 -408 552 -886
619 -946 61 -53 127 -74 217 -68 133 9 168 40 346 307 695 1045 1175 2034
1309 2696 64 317 50 605 -40 862 -122 344 -361 605 -712 777 -202 99 -414 158
-662 186 -83 9 -425 11 -505 3z m471 -603 c425 -90 751 -402 867 -829 24 -88
26 -112 26 -281 0 -156 -4 -197 -21 -260 -63 -227 -144 -370 -298 -526 -122
-123 -212 -187 -345 -246 -423 -186 -906 -102 -1238 217 -235 224 -352 498
-352 822 0 713 662 1250 1361 1103z"/>
<path d="M4353 4401 c-101 -37 -170 -98 -221 -195 -24 -46 -27 -62 -28 -162 0
-99 -3 -113 -22 -132 -63 -63 -21 -192 67 -210 30 -7 36 -13 51 -59 21 -63 61
-127 95 -149 22 -14 25 -23 25 -74 0 -52 -3 -59 -22 -65 -83 -26 -385 -143
-440 -172 -56 -29 -71 -43 -89 -80 -25 -53 -21 -64 51 -147 125 -143 256 -228
437 -283 79 -24 103 -27 243 -27 140 0 164 3 243 27 99 30 186 72 267 127 62
42 176 154 216 211 23 34 25 41 15 72 -14 42 -52 78 -116 110 -47 23 -326 131
-407 157 -38 11 -38 12 -38 66 0 49 3 58 29 80 38 32 71 85 92 148 14 45 20
51 50 58 88 18 130 147 67 210 -19 19 -22 33 -22 132 -1 107 -2 113 -35 174
-40 74 -100 130 -180 169 -49 25 -69 28 -166 31 -89 2 -120 -1 -162 -17z"/>
</g>
</svg>
